{"title":"Rychly Prachy - (PRAHA - 10.04.2011)","uid":6312000,"size":328642688,"categoryP":"porn","categoryS":"movies","magnet":"?xt=urn:btih:56cfe3f24d2728a8ea68dccce39ef7e995c72b3e&amp;dn=Rychly+Prachy+-+%28PRAHA+-+10.04.2011%29&amp;tr=udp%3A%2F%2Ftracker.openbittorrent.com%3A80&amp;tr=udp%3A%2F%2Fopen.demonii.com%3A1337&amp;tr=udp%3A%2F%2Ftracker.coppersurfer.tk%3A6969&amp;tr=udp%3A%2F%2Fexodus.desync.com%3A6969","seeders":1,"leechers":0,"uploader":null,"files":4,"time":1302575506,"description":"\n\n                Rychly Prachy (PRAHA - 10.04.2011)\n\n\n\nScreen:         &lt;a href=&quot; http://image.bayimg.com/kahliaadi.jpg&quot; rel=&quot;nofollow&quot; target=&quot;_NEW&quot;&gt; http://image.bayimg.com/kahliaadi.jpg&lt;/a&gt;\nOficial website: http://rychlyprachy.cz/\nDirect Link:    &lt;a href=&quot; http://rychlyprachy.cz/video51.cz.html&quot; rel=&quot;nofollow&quot; target=&quot;_NEW&quot;&gt; http://rychlyprachy.cz/video51.cz.html&lt;/a&gt;\n\n\n\nGeneral\nComplete name                    : Rychly Prachy (PRAHA - 10.04.2011).wmv\nFormat                           : Windows Media\nFile size                        : 313 MiB\nDuration                         : 20mn 15s\nOverall bit rate mode            : Constant\nOverall bit rate                 : 2 163 Kbps\nMaximum Overall bit rate         : 2 171 Kbps\nEncoded date                     : UTC 2011-04-10 21:48:18.263\nSfOriginalFPS                    : 300000\n\nVideo\nID                               : 2\nFormat                           : VC-1\nFormat profile                   : MP@ML\nCodec ID                         : WMV3\nCodec ID/Info                    : Windows Media Video 9\nCodec ID/Hint                    : WMV3\nDescription of the codec         : Windows Media Video 9 - Professional\nDuration                         : 20mn 15s\nBit rate mode                    : Constant\nBit rate                         : 2 086 Kbps\nWidth                            : 640 pixels\nHeight                           : 480 pixels\nDisplay aspect ratio             : 4:3\nFrame rate                       : 30.000 fps\nBit depth                        : 8 bits\nScan type                        : Progressive\nCompression mode                 : Lossy\nBits/(Pixel*Frame)               : 0.226\nStream size                      : 302 MiB (96%)\nLanguage                         : Czech\n\nAudio\nID                               : 1\nFormat                           : WMA\nFormat version                   : Version 2\nCodec ID                         : 161\nCodec ID/Info                    : Windows Media Audio\nDescription of the codec         : Windows Media Audio 9.2 -  64 kbps, 44 kHz, stereo (A/V) 1-pass CBR\nDuration                         : 20mn 15s\nBit rate mode                    : Constant\nBit rate                         : 64.0 Kbps\nChannel(s)                       : 2 channels\nSampling rate                    : 44.1 KHz\nBit depth                        : 16 bits\nStream size                      : 9.28 MiB (3%)\nLanguage                         : Czech\n\n","torrent":{"xt":"urn:btih:56cfe3f24d2728a8ea68dccce39ef7e995c72b3e","amp;dn":"Rychly+Prachy+-+%28PRAHA+-+10.04.2011%29","amp;tr":["udp%3A%2F%2Ftracker.openbittorrent.com%3A80","udp%3A%2F%2Fopen.demonii.com%3A1337","udp%3A%2F%2Ftracker.coppersurfer.tk%3A6969","udp%3A%2F%2Fexodus.desync.com%3A6969"],"infoHash":"56cfe3f24d2728a8ea68dccce39ef7e995c72b3e","infoHashBuffer":{"type":"Buffer","data":[86,207,227,242,77,39,40,168,234,104,220,204,227,158,247,233,149,199,43,62]},"announce":[],"urlList":[]}}